<svg enable-background="new 0 0 220 65.5" height="65.5" viewBox="0 0 220 65.5" width="220" xmlns="http://www.w3.org/2000/svg" xmlns:xlink="http://www.w3.org/1999/xlink"><clipPath id="a"><path d="m0 0h220v65.5h-220z"/></clipPath><g fill="#0054a4"><path clip-path="url(#a)" d="m131.2 2.4-4.8 40.6c-.3 2.7.3 5 1.8 6.6 1.9 2 5.2 2.8 9.5 2.4h.5l.7-5.2h-.7c-2.2-.1-3.4-.4-3.9-1-.4-.5-.6-1.3-.4-2.6.1-.1 5.1-43.2 5.1-43.2z"/><path clip-path="url(#a)" d="m63.6 29.8c-.4-6.9-4.8-11.1-11.9-11.1-5.3 0-9.8 1.9-13.2 5.4-3.6 3.9-5.5 9.3-5.1 15.2.5 8 6 12.8 14.8 12.8 3.5 0 7.6-.8 10.8-2.1.7-.3 1.4-.7 1.3-1.7v-.2l-.5-3.5c-.2-.9-.8-1-1.1-1-.2 0-.4.1-.6.1l-.3.1c-2.6 1-5.6 1.5-8.1 1.5-4.6 0-7.4-2.6-7.6-7 0 0 0-.7 0-.8h18.5c1.7 0 2.5-.2 2.7-1.9.2-1.2.3-3.6.3-5 0-.4 0-.6 0-.8m-8.1 2h-12.4c1-3.2 4.2-6.5 7.9-6.5 2.9 0 4.3 1.5 4.5 4.8v.5z"/><path clip-path="url(#a)" d="m214.1 11.8c0 .2-.1.4-.4.4-.2 0-.4-.1-.4-.4v-4.7c0-.2.1-.4.4-.4h1.3c.9 0 1.8.6 1.8 1.4 0 1.1-.7 1.5-1.6 1.5h-.3l1.8 1.9c.1.1.1.2.1.3s-.1.3-.3.3c-.1 0-.2-.1-.3-.1l-2.2-2.2v2zm0-2.6h1c.7 0 1.1-.3 1.1-1 0-.5-.4-.9-1.1-.9h-.9v1.9z"/><path clip-path="url(#a)" d="m210 9.6c0-2.8 2.2-5 5-5 2.6 0 5 2.3 5 5 0 2.8-2.4 5-5 5-2.8 0-5-2.3-5-5m9.3 0c0-2.3-2.1-4.3-4.3-4.3-2.4 0-4.3 2-4.3 4.3s1.9 4.3 4.3 4.3c2.1-.1 4.3-2 4.3-4.3"/><path clip-path="url(#a)" d="m33.5 17.8c-.4-7.7-6.1-11.6-17-11.6h-9.2c-1.6 0-2 .8-2.2 2 0 0-5 42.9-5.1 43.4v.1h4.9c1.6-.1 3.3-1.8 4.2-4.2.2-.5.3-1.1.4-1.6.4-4.2 1-9.2 1.1-10.5 1.2.1 2.4.2 3.6.2 6.2 0 11.4-2 14.9-5.7 2.8-2.9 4.4-7.2 4.4-11.4 0-.1 0-.4 0-.7m-11.9 8.2c-1.4 1.6-4.3 2.6-7.2 2.6-1.1 0-1.8 0-2.9 0 .1-.6 1.9-14.9 1.9-15.4h3.1c4.8 0 7.6.8 7.8 5 .3 3-.8 5.9-2.7 7.8"/><path clip-path="url(#a)" d="m118.7 21.2c-2-2.2-4.7-3.3-8.1-3.2-10.2.1-15.1 5-16 6l-.1.1v.2l-4.8 41.2h3.7c1.6-.1 3.3-1.8 4.2-4.2.2-.5.3-1.1.4-1.6.5-4.1.9-8.3 1-9 2.5 1.3 5 1.9 7.7 1.8h.7v-.1c8.9-.6 13.8-8.7 14.6-16.5.1-1.2.2-2.4.2-3.5 0-4.7-1.2-8.7-3.5-11.2m-5.1 14.3c-.6 4.8-1.9 10.3-7.4 10.6-2.3.2-4.7-.9-6.3-1.9.1-.7 2.1-17.6 2.2-18.1.8-.6 2.8-1.5 5.2-1.8.2 0 .8-.1 1-.1h1c1.3.1 2.3.5 3 1.4 1 1.2 1.6 3.3 1.6 6.2-.1 1.1-.2 2.4-.3 3.7"/><path clip-path="url(#a)" d="m162.3 48c-.1.4-.3 2.7-.4 3.9h3.8c1.5-.2 3.2-1.9 4.1-4.2.2-.4.3-.8.4-1.3l3.2-27.8-.5-.1c-1.4-.2-4.5-.6-9.2-.6-6.2 0-12.1 2.5-16.2 6.9-4 4.3-6 9.8-5.7 16.1.4 7.2 5.9 11 11.2 11 3.8 0 7-1.3 9.3-3.9m-8.4-2.5c-2.9 0-4.5-1.7-4.7-5-.2-4.4 1.3-8.6 4.2-11.7 2.6-2.8 6.2-4.4 9.8-4.4.7 0 1.2 0 1.7.1-.1 1.1-.9 8.2-.9 8.2-1 7.6-6 12.8-10.1 12.8"/><path clip-path="url(#a)" d="m79.5 25.5h3.3c1.6-.1 3.3-1.8 4.2-4.2.2-.6.4-1.2.4-1.7h-7.3c.1-.5.7-6.5 1-8.5l-8.7 2.8c-.2 1.6-.6 4.8-.7 5.7h-3c-.9 0-1.5.6-1.7 1.6l-.3 2.8v.2c0 .3.1.6.3.8.3.3.8.5 1.4.5h2.7c-.1.7-1.7 14-1.7 14s-.1.8-.1.8c-.1 1.2-.3 2.3-.3 3.5v.9c.3 4.7 3.6 7.4 9 7.4 2.7 0 5.2-.5 7.8-1.6.7-.3 1-.8 1-1.5v-.1s-.3-3.5-.3-3.5c0-.6-.5-1.1-1.1-1.1-.3 0-.5.1-.7.1h-.2c-1.3.4-2.6.7-3.9.7-2.1 0-2.9-.6-3-2.5 0-.2 0-.5 0-.8 0-.7.1-1.5.2-3 .1.2 1.5-11.4 1.7-13.3"/><path clip-path="url(#a)" d="m195.5 25.4c.9 1 1.2 2.4 1 4.2l-2.2 22.3h3.8c1.6-.1 3.3-1.8 4.2-4.2.2-.5.3-1 .4-1.5l1.9-18.9c.6-5.4-3.5-8.2-7.1-9-3.9-.9-7.6-.1-10.1.6-3.6 1-6.2 2.7-9.1 4.6l-.2.2-3 28.3h3.8c1.6-.1 3.3-1.8 4.2-4.2.2-.5.3-1.1.4-1.6.8-7.8 2-19.9 2.1-20.3 1.1-.6 3.3-1.7 5.8-1.8 1.7-.2 3.2.3 4.1 1.3"/></g></svg>